<svg width="71" height="73" viewBox="0 0 71 73" fill="none" xmlns="http://www.w3.org/2000/svg">
<path d="M35.5 72.8333C25.2742 72.8333 16.8844 71.4814 10.3306 68.7776C3.77688 66.0738 0.5 62.5919 0.5 58.3318V13.7917C0.5 10.019 3.9125 6.80506 10.7375 4.1497C17.5625 1.49434 25.8167 0.166656 35.5 0.166656C45.1833 0.166656 53.4375 1.49434 60.2625 4.1497C67.0875 6.80506 70.5 10.019 70.5 13.7917V58.3363C70.5 62.5904 67.2231 66.0708 60.6694 68.7776C54.1156 71.4844 45.7258 72.8363 35.5 72.8333ZM35.5 22.3754C41.765 22.3754 48.0796 21.4686 54.4437 19.6549C60.8137 17.8413 64.6229 15.8657 65.8712 13.7281C64.6754 11.4754 60.9275 9.40895 54.6275 7.5287C48.3275 5.64845 41.9517 4.70832 35.5 4.70832C29.1446 4.70832 22.7775 5.61514 16.3987 7.42878C10.02 9.24242 6.20646 11.2256 4.95813 13.3784C6.14813 15.6492 9.90479 17.7172 16.2281 19.5823C22.5515 21.4474 28.9754 22.3754 35.5 22.3754ZM35.5 45.2336C38.5042 45.2336 41.4573 45.0822 44.3594 44.7794C47.2615 44.4767 50.0337 44.027 52.6762 43.4306C55.3187 42.8341 57.776 42.0908 60.0481 41.2006C62.3202 40.3104 64.3458 39.3037 66.125 38.1804V19.5823C64.3429 20.7026 62.3158 21.7078 60.0438 22.5979C57.7775 23.4881 55.3217 24.2299 52.6762 24.8234C50.0308 25.4229 47.2585 25.874 44.3594 26.1768C41.4602 26.4796 38.5071 26.6309 35.5 26.6309C32.3792 26.6309 29.3473 26.4644 26.4044 26.1314C23.4615 25.7983 20.6819 25.3351 18.0656 24.7416C15.4494 24.1482 13.0242 23.4185 10.79 22.5525C8.55583 21.6866 6.58417 20.6965 4.875 19.5823V38.1849C6.58708 39.3052 8.55875 40.2953 10.79 41.1552C13.0213 42.0151 15.4465 42.7448 18.0656 43.3443C20.679 43.9408 23.4585 44.4055 26.4044 44.7386C29.3502 45.0716 32.3821 45.2366 35.5 45.2336ZM35.5 68.2917C39.2479 68.2917 42.8106 68.0706 46.1881 67.6286C49.5656 67.1865 52.6019 66.5598 55.2969 65.7483C57.9919 64.9369 60.2815 63.9665 62.1656 62.8371C64.0498 61.7078 65.3696 60.4891 66.125 59.1811V42.7266C64.3429 43.8469 62.3158 44.8521 60.0438 45.7423C57.7775 46.6324 55.3217 47.3758 52.6762 47.9722C50.0308 48.5687 47.2585 49.0183 44.3594 49.3211C41.4602 49.6239 38.5071 49.7753 35.5 49.7753C32.3792 49.7753 29.3473 49.6088 26.4044 49.2757C23.4615 48.9426 20.6819 48.4794 18.0656 47.8859C15.4494 47.2925 13.0242 46.5628 10.79 45.6969C8.55583 44.837 6.58417 43.8469 4.875 42.7266V59.2083C5.63333 60.5769 6.95021 61.8062 8.82562 62.8962C10.701 63.9862 12.9848 64.9354 15.6769 65.7438C18.369 66.5522 21.4096 67.1805 24.7987 67.6286C28.1879 68.0767 31.755 68.2977 35.5 68.2917Z" fill="black"/>
</svg>
