<svg width="108" height="108" viewBox="0 0 108 108" fill="none" xmlns="http://www.w3.org/2000/svg">
<path d="M91.125 81C89.6216 81.0069 88.1391 81.353 86.7881 82.0125L72.2756 67.5H60.75V74.25H69.4778L82.0159 86.7881C81.3595 88.1404 81.0125 89.6219 81 91.125C81 93.1275 81.5938 95.0851 82.7064 96.7501C83.8189 98.4152 85.4002 99.7129 87.2503 100.479C89.1004 101.246 91.1362 101.446 93.1003 101.055C95.0644 100.665 96.8685 99.7005 98.2845 98.2845C99.7005 96.8684 100.665 95.0643 101.055 93.1003C101.446 91.1362 101.246 89.1004 100.479 87.2503C99.7129 85.4002 98.4152 83.8189 96.7501 82.7064C95.0851 81.5938 93.1275 81 91.125 81ZM91.125 94.5C90.4575 94.5 89.805 94.3021 89.2499 93.9312C88.6949 93.5604 88.2624 93.0333 88.0069 92.4166C87.7515 91.7999 87.6846 91.1213 87.8148 90.4666C87.9451 89.8119 88.2665 89.2105 88.7385 88.7385C89.2105 88.2665 89.8119 87.9451 90.4666 87.8148C91.1213 87.6846 91.7999 87.7515 92.4166 88.0069C93.0333 88.2624 93.5604 88.6949 93.9312 89.2499C94.3021 89.805 94.5 90.4575 94.5 91.125C94.5 92.0201 94.1444 92.8786 93.5115 93.5115C92.8786 94.1444 92.0201 94.5 91.125 94.5ZM91.125 43.875C89.0378 43.8812 87.0037 44.5334 85.302 45.742C83.6003 46.9506 82.3144 48.6563 81.621 50.625H60.75V57.375H81.621C82.2428 59.1205 83.3323 60.6614 84.7706 61.8296C86.2089 62.9977 87.9407 63.748 89.7766 63.9984C91.6124 64.2489 93.4819 63.99 95.1805 63.2499C96.8792 62.5098 98.3417 61.317 99.4084 59.8019C100.475 58.2868 101.105 56.5077 101.229 54.6589C101.352 52.8102 100.966 50.9629 100.111 49.3191C99.2559 47.6752 97.9655 46.298 96.3808 45.3379C94.796 44.3777 92.9779 43.8717 91.125 43.875ZM91.125 57.375C90.4575 57.375 89.805 57.1771 89.2499 56.8062C88.6949 56.4354 88.2624 55.9083 88.0069 55.2916C87.7515 54.6748 87.6846 53.9963 87.8148 53.3416C87.9451 52.6869 88.2665 52.0855 88.7385 51.6135C89.2105 51.1415 89.8119 50.8201 90.4666 50.6898C91.1213 50.5596 91.7999 50.6265 92.4166 50.8819C93.0333 51.1373 93.5604 51.5699 93.9312 52.1249C94.3021 52.68 94.5 53.3325 94.5 54C94.5 54.8951 94.1444 55.7535 93.5115 56.3865C92.8786 57.0194 92.0201 57.375 91.125 57.375ZM91.125 6.75C88.4405 6.75268 85.8667 7.82028 83.9685 9.7185C82.0703 11.6167 81.0027 14.1905 81 16.875C81.016 18.4912 81.4187 20.0801 82.1745 21.5089L69.5115 33.75H60.75V40.5H72.2385L87.0885 26.1495C88.468 26.751 89.9642 27.0374 91.4683 26.9877C92.9724 26.9381 94.4465 26.5536 95.7833 25.8624C97.12 25.1712 98.2859 24.1905 99.1959 22.9919C100.106 21.7933 100.737 20.4068 101.044 18.9335C101.35 17.4601 101.324 15.9369 100.968 14.4748C100.612 13.0127 99.9337 11.6485 98.9836 10.4814C98.0335 9.31434 96.8351 8.37382 95.4757 7.72833C94.1162 7.08284 92.6299 6.74862 91.125 6.75ZM91.125 20.25C90.4575 20.25 89.805 20.0521 89.2499 19.6812C88.6949 19.3104 88.2624 18.7833 88.0069 18.1666C87.7515 17.5499 87.6846 16.8713 87.8148 16.2166C87.9451 15.5619 88.2665 14.9605 88.7385 14.4885C89.2105 14.0165 89.8119 13.6951 90.4666 13.5648C91.1213 13.4346 91.7999 13.5015 92.4166 13.7569C93.0333 14.0123 93.5604 14.4449 93.9312 14.9999C94.3021 15.555 94.5 16.2075 94.5 16.875C94.5 17.7701 94.1444 18.6285 93.5115 19.2615C92.8786 19.8944 92.0201 20.25 91.125 20.25Z" fill="black"/>
<path d="M60.75 20.25H67.5V13.5H60.75C58.8268 13.5073 56.9276 13.9275 55.1808 14.7322C53.434 15.5369 51.8804 16.7073 50.625 18.1642C49.3696 16.7073 47.816 15.5369 46.0692 14.7322C44.3224 13.9275 42.4232 13.5073 40.5 13.5H37.125C29.0718 13.5089 21.351 16.712 15.6565 22.4065C9.96202 28.101 6.75893 35.8218 6.75 43.875V64.125C6.75893 72.1782 9.96202 79.899 15.6565 85.5935C21.351 91.288 29.0718 94.4911 37.125 94.5H40.5C42.4232 94.4927 44.3224 94.0725 46.0692 93.2678C47.816 92.4631 49.3696 91.2927 50.625 89.8358C51.8804 91.2927 53.434 92.4631 55.1808 93.2678C56.9276 94.0725 58.8268 94.4927 60.75 94.5H67.5V87.75H60.75C58.9598 87.75 57.2429 87.0388 55.977 85.773C54.7112 84.5071 54 82.7902 54 81V27C54 25.2098 54.7112 23.4929 55.977 22.227C57.2429 20.9612 58.9598 20.25 60.75 20.25ZM40.5 87.75H37.125C31.4497 87.7398 25.9675 85.6885 21.6796 81.9707C17.3917 78.2528 14.5842 73.1166 13.77 67.5H20.25V60.75H13.5V47.25H23.625C26.3095 47.2473 28.8833 46.1797 30.7815 44.2815C32.6797 42.3833 33.7473 39.8095 33.75 37.125V30.375H27V37.125C27 38.0201 26.6444 38.8785 26.0115 39.5115C25.3785 40.1444 24.5201 40.5 23.625 40.5H13.77C14.5842 34.8834 17.3917 29.7472 21.6796 26.0293C25.9675 22.3115 31.4497 20.2602 37.125 20.25H40.5C42.2902 20.25 44.0071 20.9612 45.273 22.227C46.5388 23.4929 47.25 25.2098 47.25 27V40.5H40.5V47.25H47.25V60.75H40.5C37.8155 60.7527 35.2417 61.8203 33.3435 63.7185C31.4453 65.6167 30.3777 68.1905 30.375 70.875V77.625H37.125V70.875C37.125 69.9799 37.4806 69.1214 38.1135 68.4885C38.7465 67.8556 39.6049 67.5 40.5 67.5H47.25V81C47.25 82.7902 46.5388 84.5071 45.273 85.773C44.0071 87.0388 42.2902 87.75 40.5 87.75Z" fill="black"/>
</svg>
