<svg width="70" height="78" viewBox="0 0 70 78" fill="none" xmlns="http://www.w3.org/2000/svg">
<path d="M25.0833 73.5H11.6667C9.63334 73.5 7.68329 72.6923 6.24551 71.2545C4.80774 69.8167 4 67.8667 4 65.8333V12.1667C4 10.1333 4.80774 8.18329 6.24551 6.74551C7.68329 5.30774 9.63334 4.5 11.6667 4.5H42.3333C44.3667 4.5 46.3167 5.30774 47.7545 6.74551C49.1923 8.18329 50 10.1333 50 12.1667V42.8333M57.6667 73.5L65.3333 65.8333L57.6667 58.1667M46.1667 58.1667L38.5 65.8333L46.1667 73.5M23.1667 8.33333H30.8333M27 58.1667V58.205" stroke="black" stroke-width="8" stroke-linecap="round" stroke-linejoin="round"/>
</svg>
