<svg width="116" height="116" viewBox="0 0 116 116" fill="none" xmlns="http://www.w3.org/2000/svg">
<path d="M14.6667 82.375C14.6667 86.6848 16.3787 90.818 19.4262 93.8655C22.4737 96.913 26.6069 98.625 30.9167 98.625C30.9167 102.216 32.3434 105.661 34.883 108.2C37.4225 110.74 40.8669 112.167 44.4584 112.167C48.0498 112.167 51.4942 110.74 54.0338 108.2C56.5733 105.661 58 102.216 58 98.625C58 102.216 59.4267 105.661 61.9663 108.2C64.5058 110.74 67.9502 112.167 71.5417 112.167C75.1332 112.167 78.5775 110.74 81.1171 108.2C83.6567 105.661 85.0834 102.216 85.0834 98.625C87.9642 98.6253 90.7934 97.8596 93.2809 96.4066C95.7685 94.9535 97.8251 92.8653 99.2399 90.3558C100.655 87.8463 101.377 85.0058 101.333 82.1252C101.289 79.2447 100.479 76.4277 98.9879 73.9629C102.695 73.2465 106.038 71.2618 108.441 68.3494C110.845 65.4371 112.159 61.7788 112.159 58.0027C112.159 54.2266 110.845 50.5684 108.441 47.656C106.038 44.7436 102.695 42.7589 98.9879 42.0425C100.481 39.5776 101.291 36.76 101.336 33.8787C101.381 30.9974 100.659 28.1559 99.244 25.6456C97.8289 23.1352 95.7718 21.0463 93.2835 19.593C90.7951 18.1397 87.965 17.3742 85.0834 17.375C85.0834 13.7835 83.6567 10.3392 81.1171 7.7996C78.5775 5.26004 75.1332 3.83334 71.5417 3.83334C67.9502 3.83334 64.5058 5.26004 61.9663 7.7996C59.4267 10.3392 58 13.7835 58 17.375C58 13.7835 56.5733 10.3392 54.0338 7.7996C51.4942 5.26004 48.0498 3.83334 44.4584 3.83334C40.8669 3.83334 37.4225 5.26004 34.883 7.7996C32.3434 10.3392 30.9167 13.7835 30.9167 17.375C28.0358 17.3748 25.2067 18.1404 22.7191 19.5934C20.2315 21.0465 18.175 23.1347 16.7601 25.6442C15.3453 28.1537 14.623 30.9942 14.6672 33.8748C14.7115 36.7553 15.5208 39.5723 17.0121 42.0371C13.3046 42.7535 9.96218 44.7382 7.55868 47.6506C5.15518 50.563 3.84058 54.2212 3.84058 57.9973C3.84058 61.7734 5.15518 65.4316 7.55868 68.344C9.96218 71.2564 13.3046 73.2411 17.0121 73.9575C15.4764 76.4966 14.6653 79.4077 14.6667 82.375Z" stroke="black" stroke-width="6" stroke-linecap="round" stroke-linejoin="round"/>
<path d="M33.625 71.5417L43.6025 41.6092C43.853 40.8622 44.3318 40.2128 44.9713 39.7527C45.6109 39.2926 46.3788 39.045 47.1667 39.045C47.9545 39.045 48.7225 39.2926 49.362 39.7527C50.0016 40.2128 50.4804 40.8622 50.7308 41.6092L60.7083 71.5417M76.9583 39.0417V71.5417M39.0417 60.7083H55.2917" stroke="black" stroke-width="5" stroke-linecap="round" stroke-linejoin="round"/>
</svg>
