<svg width="66" height="67" viewBox="0 0 66 67" fill="none" xmlns="http://www.w3.org/2000/svg">
<g clip-path="url(#clip0_3_201)">
<path d="M22.9917 2.67082C16.3973 4.95848 10.7103 9.30055 6.76599 15.0592C2.8217 20.8179 0.828051 27.6897 1.07788 34.6652C1.3277 41.6407 3.80783 48.3522 8.15398 53.814C12.5001 59.2757 18.4832 63.1998 25.2244 65.0099C30.6896 66.4201 36.4156 66.482 41.91 65.1904C46.8874 64.0723 51.4892 61.6808 55.2647 58.25C59.1942 54.5703 62.0464 49.8891 63.5147 44.7097C65.1107 39.0774 65.3947 33.1542 64.3449 27.395H33.6548V40.1258H51.4284C51.0732 42.1563 50.312 44.0942 49.1904 45.8236C48.0687 47.5531 46.6097 49.0384 44.9006 50.1908C42.7303 51.6265 40.2837 52.5925 37.718 53.0268C35.1447 53.5052 32.5053 53.5052 29.932 53.0268C27.3239 52.4875 24.8567 51.4111 22.6875 49.866C19.2026 47.3992 16.586 43.8946 15.2109 39.8525C13.8126 35.7347 13.8126 31.2705 15.2109 27.1527C16.1897 24.2663 17.8078 21.6383 19.9444 19.4647C22.3894 16.9317 25.4849 15.1211 28.8913 14.2315C32.2976 13.342 35.8832 13.4078 39.2545 14.4219C41.8882 15.2304 44.2966 16.6429 46.2877 18.5469C48.2917 16.5532 50.2924 14.5543 52.2895 12.5502C53.3208 11.4725 54.4449 10.4464 55.4606 9.343C52.4214 6.51468 48.8538 4.31389 44.9625 2.86675C37.8763 0.293734 30.1227 0.224586 22.9917 2.67082Z" fill="white"/>
<path d="M22.9917 2.67076C30.1221 0.222866 37.8757 0.290193 44.9625 2.86154C48.8545 4.31851 52.4204 6.52989 55.4555 9.36873C54.4242 10.4722 53.3363 11.5034 52.2844 12.5759C50.2838 14.5731 48.2848 16.5634 46.2877 18.5469C44.2966 16.6428 41.8882 15.2303 39.2545 14.4219C35.8843 13.4042 32.2988 13.3345 28.8916 14.2205C25.4844 15.1064 22.387 16.9137 19.9392 19.444C17.8026 21.6176 16.1846 24.2456 15.2058 27.132L4.51688 18.8562C8.34286 11.2691 14.9673 5.46557 22.9917 2.67076Z" fill="#E33629"/>
<path d="M1.68094 27.0546C2.25546 24.2073 3.20927 21.4499 4.51688 18.8562L15.2058 27.1526C13.8075 31.2704 13.8075 35.7346 15.2058 39.8525C11.6445 42.6025 8.08157 45.3662 4.51688 48.1437C1.24344 41.6278 0.245093 34.2038 1.68094 27.0546Z" fill="#F8BD00"/>
<path d="M33.6548 27.3899H64.3448C65.3946 33.1491 65.1106 39.0722 63.5147 44.7046C62.0464 49.8839 59.1942 54.5651 55.2647 58.2449C51.8151 55.5533 48.3501 52.8824 44.9006 50.1908C46.6108 49.0373 48.0705 47.5503 49.1922 45.819C50.3139 44.0877 51.0745 42.1478 51.4284 40.1155H33.6548C33.6497 35.8771 33.6548 31.6335 33.6548 27.3899Z" fill="#587DBD"/>
<path d="M4.51172 48.1438C8.07641 45.3938 11.6394 42.63 15.2006 39.8525C16.5784 43.8961 19.1988 47.4007 22.6875 49.866C24.8635 51.4039 27.336 52.4716 29.9475 53.001C32.5208 53.4795 35.1602 53.4795 37.7334 53.001C40.2992 52.5667 42.7457 51.6007 44.9161 50.165C48.3656 52.8566 51.8306 55.5275 55.2802 58.2191C51.5052 61.6518 46.9034 64.0451 41.9255 65.1646C36.431 66.4562 30.7051 66.3943 25.2398 64.9841C20.9174 63.83 16.8799 61.7955 13.3805 59.008C9.67653 56.0673 6.65133 52.3615 4.51172 48.1438Z" fill="#319F43"/>
</g>
<defs>
<clipPath id="clip0_3_201">
<rect width="66" height="66" fill="white" transform="translate(0 0.5)"/>
</clipPath>
</defs>
</svg>
