<svg width="100" height="100" viewBox="0 0 100 100" fill="none" xmlns="http://www.w3.org/2000/svg">
<path d="M50 0C22.427 0 0 22.427 0 50C0 77.573 22.427 100 50 100C77.573 100 100 77.573 100 50C100 22.427 77.573 0 50 0ZM52.506 7.078C65.324 7.811 76.611 14.131 83.992 23.646C82.044 23.5953 80.1047 23.5843 78.174 23.613C74.822 23.6683 71.4731 23.8458 68.134 24.145C67.52 22.8776 66.5615 21.8087 65.3683 21.0606C64.1751 20.3125 62.7953 19.9155 61.387 19.915C61.0381 19.915 60.6895 19.9394 60.344 19.988C57.9961 15.5294 55.3786 11.2181 52.506 7.078ZM46.428 7.158C50.065 12.127 53.218 17.171 55.916 22.285C54.9124 23.3555 54.2448 24.6969 53.996 26.143C49.3311 27.0525 44.7152 28.1973 40.166 29.573C39.5999 28.8077 38.8934 28.1571 38.084 27.656C39.971 20.921 42.611 14.097 45.986 7.191C46.133 7.178 46.281 7.171 46.428 7.158ZM39.988 8.18C37.168 14.345 34.918 20.487 33.244 26.59C32.2314 26.7115 31.2541 27.0383 30.3721 27.5503C29.49 28.0623 28.7217 28.7489 28.114 29.568C23.6019 28.1295 19.0319 26.8791 14.416 25.82C20.4404 16.9553 29.5616 10.6633 39.988 8.18ZM81.111 28.598C83.203 28.611 85.305 28.678 87.418 28.788C89.944 33.2363 91.6501 38.1023 92.455 43.154C86.405 44.138 80.515 45.501 74.781 47.219C74.162 46.4525 73.398 45.8154 72.5327 45.3443C71.6674 44.8731 70.7178 44.577 69.738 44.473C68.774 40.6358 67.5999 36.8544 66.221 33.146C67.4612 32.0996 68.3286 30.6792 68.693 29.098C72.792 28.742 76.929 28.571 81.111 28.598ZM11.732 30.36C16.834 31.483 21.812 32.796 26.645 34.339L26.646 34.369C20.138 37.042 13.739 40.194 7.447 43.806C8.11967 39.1174 9.56778 34.5733 11.732 30.36ZM54.826 31.044C55.4743 32.2161 56.4246 33.1931 57.5782 33.8737C58.7318 34.5543 60.0466 34.9135 61.386 34.914L61.588 34.909C62.8951 38.4099 64.0087 41.9799 64.924 45.603C64.5483 45.8411 64.1946 46.1122 63.867 46.413C56.8151 41.8169 49.3704 37.8538 41.62 34.57C41.626 34.4847 41.6307 34.3994 41.634 34.314C45.974 33.0032 50.3762 31.9118 54.826 31.044ZM28.507 38.985C29.0584 39.6121 29.7107 40.1428 30.437 40.555C29.205 50.196 29.478 59.702 31.358 69.001C26.9271 72.2404 22.6586 75.6962 18.568 79.356C11.392 71.677 7 61.366 7 50C7 49.953 7.004 49.908 7.004 49.861C14.051 45.627 21.214 41.991 28.506 38.986M39.627 39.145C47.2667 42.373 54.5974 46.2881 61.529 50.842C61.4752 51.2029 61.4478 51.5672 61.447 51.932V51.979C52.487 55.704 43.933 60.359 35.775 65.893C34.365 57.895 34.215 49.743 35.268 41.449C36.9391 41.1942 38.4752 40.3823 39.627 39.145ZM92.953 48.139C92.979 48.756 93 49.376 93 50C93.0073 56.0904 91.7177 62.1126 89.217 67.666C85.0083 63.1841 80.5089 58.9844 75.748 55.094C76.2067 54.1081 76.4455 53.0343 76.448 51.947C81.8645 50.3334 87.377 49.0616 92.953 48.139ZM63.135 56.668C64.2143 57.9929 65.7137 58.9095 67.385 59.266C68.479 69.175 68.145 79.332 66.453 89.746C61.2354 91.9001 55.6448 93.0058 50 93C48.522 93 47.0637 92.927 45.625 92.781C41.613 85.717 38.716 78.511 36.896 71.174C45.224 65.351 53.959 60.499 63.135 56.668ZM72.316 58.728C77.4546 62.9157 82.2801 67.4735 86.754 72.365C83.0795 78.3922 77.9808 83.4246 71.906 87.02C73.191 77.418 73.346 67.976 72.316 58.728ZM32.606 74.284C34.196 80.177 36.44 85.981 39.359 91.677C33.0382 90.0705 27.1681 87.0407 22.197 82.819C25.594 79.799 29.063 76.949 32.606 74.284Z" fill="black"/>
</svg>
