<svg width="88" height="88" viewBox="0 0 88 88" fill="none" xmlns="http://www.w3.org/2000/svg">
<g clip-path="url(#clip0_25_28)">
<path d="M73.3334 22.5389C72.5484 22.3559 71.7523 22.2248 70.95 22.1466C69.8471 16.5594 67.0349 11.4532 62.9026 7.53431C58.7703 3.61547 53.5222 1.07779 47.8845 0.272398C42.2467 -0.532997 36.498 0.433706 31.4337 3.03875C26.3694 5.6438 22.24 9.7584 19.6167 14.8133C17.9262 15.0176 16.265 15.4175 14.6667 16.0049C10.3803 17.5095 6.66703 20.3082 4.04005 24.0144C1.41306 27.7207 0.0020752 32.1513 0.0020752 36.6941C0.0020752 41.2369 1.41306 45.6675 4.04005 49.3737C6.66703 53.0799 10.3803 55.8787 14.6667 57.3833V49.3019C12.4381 48.026 10.586 46.184 9.29797 43.9623C8.00992 41.7406 7.33157 39.2181 7.33157 36.6501C7.33157 34.082 8.00992 31.5596 9.29797 29.3379C10.586 27.1162 12.4381 25.2742 14.6667 23.9983C16.4177 22.9698 18.3676 22.3261 20.3867 22.1099L24.31 21.7066L26.1434 18.2233C28.0591 14.512 31.0823 11.4889 34.7937 9.5734C38.5051 7.65787 42.7206 6.94485 46.8555 7.53325C50.9903 8.12164 54.8396 9.98228 57.8693 12.8571C60.899 15.7318 62.959 19.4783 63.7634 23.5766L64.8634 29.0766L70.4734 29.4799C71.4504 29.5605 72.4122 29.7714 73.3334 30.1069C75.4732 30.8427 77.3299 32.2282 78.6443 34.07C79.9587 35.9119 80.6652 38.1182 80.6652 40.3809C80.6652 42.6437 79.9587 44.85 78.6443 46.6918C77.3299 48.5337 75.4732 49.9192 73.3334 50.6549V58.2963C77.4682 57.4717 81.1895 55.2395 83.8635 51.9796C86.5375 48.7198 87.9989 44.6339 87.9989 40.4176C87.9989 36.2013 86.5375 32.1154 83.8635 28.8555C81.1895 25.5957 77.4682 23.3635 73.3334 22.5389Z" fill="black"/>
<path d="M22 36.6667V55H66V36.6667H22ZM47.6667 47.6667H25.6667V44H47.6667V47.6667ZM53.1667 47.6667C52.8041 47.6667 52.4496 47.5591 52.1481 47.3577C51.8466 47.1562 51.6116 46.8699 51.4729 46.5349C51.3341 46.1999 51.2978 45.8313 51.3686 45.4757C51.4393 45.12 51.6139 44.7934 51.8703 44.537C52.1267 44.2806 52.4534 44.106 52.809 44.0352C53.1646 43.9645 53.5333 44.0008 53.8683 44.1395C54.2033 44.2783 54.4896 44.5133 54.691 44.8148C54.8925 45.1163 55 45.4707 55 45.8333C55 46.3196 54.8068 46.7859 54.463 47.1297C54.1192 47.4735 53.6529 47.6667 53.1667 47.6667ZM60.5 47.6667C60.1374 47.6667 59.7829 47.5591 59.4815 47.3577C59.18 47.1562 58.945 46.8699 58.8062 46.5349C58.6675 46.1999 58.6312 45.8313 58.7019 45.4757C58.7726 45.12 58.9472 44.7934 59.2036 44.537C59.46 44.2806 59.7867 44.106 60.1423 44.0352C60.498 43.9645 60.8666 44.0008 61.2016 44.1395C61.5366 44.2783 61.8229 44.5133 62.0244 44.8148C62.2258 45.1163 62.3333 45.4707 62.3333 45.8333C62.3333 46.3196 62.1402 46.7859 61.7964 47.1297C61.4525 47.4735 60.9862 47.6667 60.5 47.6667ZM22 62.3333V80.6667H66V62.3333H22ZM47.6667 73.3333H25.6667V69.6667H47.6667V73.3333ZM53.1667 73.3333C52.8041 73.3333 52.4496 73.2258 52.1481 73.0244C51.8466 72.8229 51.6116 72.5366 51.4729 72.2016C51.3341 71.8666 51.2978 71.498 51.3686 71.1423C51.4393 70.7867 51.6139 70.46 51.8703 70.2036C52.1267 69.9472 52.4534 69.7726 52.809 69.7019C53.1646 69.6311 53.5333 69.6675 53.8683 69.8062C54.2033 69.945 54.4896 70.18 54.691 70.4814C54.8925 70.7829 55 71.1374 55 71.5C55 71.9862 54.8068 72.4525 54.463 72.7964C54.1192 73.1402 53.6529 73.3333 53.1667 73.3333ZM60.5 73.3333C60.1374 73.3333 59.7829 73.2258 59.4815 73.0244C59.18 72.8229 58.945 72.5366 58.8062 72.2016C58.6675 71.8666 58.6312 71.498 58.7019 71.1423C58.7726 70.7867 58.9472 70.46 59.2036 70.2036C59.46 69.9472 59.7867 69.7726 60.1423 69.7019C60.498 69.6311 60.8666 69.6675 61.2016 69.8062C61.5366 69.945 61.8229 70.18 62.0244 70.4814C62.2258 70.7829 62.3333 71.1374 62.3333 71.5C62.3333 71.9862 62.1402 72.4525 61.7964 72.7964C61.4525 73.1402 60.9862 73.3333 60.5 73.3333Z" fill="black"/>
</g>
<defs>
<clipPath id="clip0_25_28">
<rect width="88" height="88" fill="white"/>
</clipPath>
</defs>
</svg>
