<svg width="106" height="106" viewBox="0 0 106 106" fill="none" xmlns="http://www.w3.org/2000/svg">
<g clip-path="url(#clip0_19_44)">
<path d="M53 0C57.8652 0 62.5579 0.621094 67.0781 1.86328C71.5983 3.10547 75.8252 4.88249 79.7588 7.19434C83.6924 9.50618 87.2637 12.2666 90.4727 15.4756C93.6816 18.6846 96.4421 22.2731 98.7539 26.2412C101.066 30.2093 102.843 34.4362 104.085 38.9219C105.327 43.4076 105.965 48.1003 106 53C106 57.8652 105.379 62.5579 104.137 67.0781C102.895 71.5983 101.118 75.8252 98.8057 79.7588C96.4938 83.6924 93.7334 87.2637 90.5244 90.4727C87.3154 93.6816 83.7269 96.4421 79.7588 98.7539C75.7907 101.066 71.5638 102.843 67.0781 104.085C62.5924 105.327 57.8997 105.965 53 106C48.1348 106 43.4421 105.379 38.9219 104.137C34.4017 102.895 30.1748 101.118 26.2412 98.8057C22.3076 96.4938 18.7363 93.7334 15.5273 90.5244C12.3184 87.3154 9.55794 83.7269 7.24609 79.7588C4.93424 75.7907 3.15723 71.5811 1.91504 67.1299C0.672852 62.6787 0.0345052 57.9688 0 53C0 48.1348 0.621094 43.4421 1.86328 38.9219C3.10547 34.4017 4.88249 30.1748 7.19434 26.2412C9.50618 22.3076 12.2666 18.7363 15.4756 15.5273C18.6846 12.3184 22.2731 9.55794 26.2412 7.24609C30.2093 4.93424 34.4189 3.15723 38.8701 1.91504C43.3213 0.672852 48.0312 0.0345052 53 0ZM53 99.375C57.2441 99.375 61.333 98.8229 65.2666 97.7188C69.2002 96.6146 72.8923 95.0618 76.3428 93.0605C79.7933 91.0592 82.9333 88.6266 85.7627 85.7627C88.5921 82.8988 91.0075 79.776 93.0088 76.3945C95.0101 73.013 96.5801 69.321 97.7188 65.3184C98.8574 61.3158 99.4095 57.2096 99.375 53C99.375 48.7559 98.8229 44.667 97.7188 40.7334C96.6146 36.7998 95.0618 33.1077 93.0605 29.6572C91.0592 26.2067 88.6266 23.0667 85.7627 20.2373C82.8988 17.4079 79.776 14.9925 76.3945 12.9912C73.013 10.9899 69.321 9.41992 65.3184 8.28125C61.3158 7.14258 57.2096 6.59049 53 6.625C48.7559 6.625 44.667 7.17708 40.7334 8.28125C36.7998 9.38542 33.1077 10.9382 29.6572 12.9395C26.2067 14.9408 23.0667 17.3734 20.2373 20.2373C17.4079 23.1012 14.9925 26.224 12.9912 29.6055C10.9899 32.987 9.41992 36.679 8.28125 40.6816C7.14258 44.6842 6.59049 48.7904 6.625 53C6.625 57.2441 7.17708 61.333 8.28125 65.2666C9.38542 69.2002 10.9382 72.8923 12.9395 76.3428C14.9408 79.7933 17.3734 82.9333 20.2373 85.7627C23.1012 88.5921 26.224 91.0075 29.6055 93.0088C32.987 95.0101 36.679 96.5801 40.6816 97.7188C44.6842 98.8574 48.7904 99.4095 53 99.375ZM83.8994 53.8281L86.3838 46.375H90.2656L85.8662 59.625H81.9844L79.5 52.1719L77.0156 59.625H73.1338L68.7344 46.375H72.6162L75.1006 53.8281L77.585 46.375H81.415L83.8994 53.8281ZM59.8838 46.375H63.7656L59.3662 59.625H55.4844L53 52.1719L50.5156 59.625H46.6338L42.2344 46.375H46.1162L48.6006 53.8281L51.085 46.375H54.915L57.3994 53.8281L59.8838 46.375ZM33.3838 46.375H37.2656L32.8662 59.625H28.9844L26.5 52.1719L24.0156 59.625H20.1338L15.7344 46.375H19.6162L22.1006 53.8281L24.585 46.375H28.415L30.8994 53.8281L33.3838 46.375Z" fill="black"/>
</g>
<defs>
<clipPath id="clip0_19_44">
<rect width="106" height="106" fill="white"/>
</clipPath>
</defs>
</svg>
